<svg width="390" height="314" xmlns="http://www.w3.org/2000/svg" xml:space="preserve" version="1.1">

 <g>
  <title>Layer 1</title>
  <g stroke="null" id="svg_1">
   <path stroke="null" id="svg_2" fill="#57C927" d="m114.11845,101.32177l0,112.4803c0,8.78494 5.30009,15.67647 14.38418,15.67647l11.85875,0c-0.40706,0 -1.32087,2.98068 -1.32087,4.44415l0,31.85729c0,8.32606 8.02075,15.07702 16.61471,15.07702c8.59811,0 16.61471,-6.75097 16.61471,-15.07702l0,-31.85729c0,-1.46347 -1.60332,-4.44415 -1.99792,-4.44415l28.92621,0c-0.3946,0 -2.00623,2.98068 -2.00623,4.44415l0,31.85729c0,8.32606 8.00414,15.07702 16.59809,15.07702c8.61473,0 16.63132,-6.75097 16.63132,-15.07702l0,-31.85729c0,-1.46347 -0.90966,-4.44415 -1.31672,-4.44415l11.87536,0c9.08409,0 14.36341,-6.89153 14.36341,-15.67647l0,-112.4803l-142.17621,0l0.95119,0z"/>
   <path stroke="null" id="svg_3" fill="#57C927" d="m85.04271,103.15317c-8.60226,0 -16.61471,6.7551 -16.61471,15.07702l0,64.5538c0,8.32606 8.01244,15.07702 16.61471,15.07702c8.59811,0 16.61471,-6.75097 16.61471,-15.07702l0,-64.54967c0,-8.32606 -8.0166,-15.08116 -16.61471,-15.08116z"/>
   <path stroke="null" id="svg_4" fill="#57C927" d="m220.48996,42.73346l2.89927,-4.23331l2.90342,-4.1837l6.46727,-9.40505c0.80997,-1.16581 0.47352,-2.72023 -0.71859,-3.48504c-1.17964,-0.78134 -2.81204,-0.45475 -3.58462,0.7028l-9.87329,14.31635l-2.96988,4.31186c-9.38316,-3.53051 -19.83796,-5.49834 -30.88259,-5.49834c-11.0197,0 -21.49528,1.97196 -30.87843,5.49834l-2.95326,-4.30772l-2.92003,-4.22917l-6.93664,-10.08304c-0.80166,-1.16168 -2.41329,-1.4676 -3.60955,-0.7028c-1.1838,0.76894 -1.51194,2.32336 -0.72274,3.48504l6.46312,9.40919l2.90342,4.18783l2.91588,4.22091c-22.0311,9.94248 -36.93865,29.64555 -36.93865,50.316l145.35792,0c0,-20.67045 -14.90339,-40.37352 -36.92203,-50.32013zm-66.90743,30.24913c-4.31567,0 -7.7923,-3.37755 -7.7923,-7.54885s3.47663,-7.53231 7.7923,-7.53231c4.30321,0 7.78814,3.36101 7.78814,7.53231s-3.48078,7.54885 -7.78814,7.54885zm62.30515,0c-4.31152,0 -7.79645,-3.37755 -7.79645,-7.54885s3.48493,-7.53231 7.79645,-7.53231c4.30321,0 7.78814,3.36101 7.78814,7.53231s-3.48493,7.54885 -7.78814,7.54885z"/>
  </g>
  <path stroke="null" id="svg_6" fill="#57C927" d="m280.42798,101.97701c-7.76625,0 -15,6.72401 -15,15.00763l0,64.25671c0,8.28774 7.23375,15.00763 15,15.00763c7.7625,0 15,-6.7199 15,-15.00763l0,-64.25259c0,-8.28774 -7.2375,-15.01175 -15,-15.01175z"/>
  <g id="svg_12"/>
  <g id="svg_13"/>
  <g id="svg_14"/>
  <g id="svg_15"/>
  <g id="svg_16"/>
  <g id="svg_17"/>
  <g id="svg_18"/>
  <g id="svg_19"/>
  <g id="svg_20"/>
  <g id="svg_21"/>
  <g id="svg_22"/>
  <g id="svg_23"/>
  <g id="svg_24"/>
  <g id="svg_25"/>
  <g id="svg_26"/>
 </g>
</svg>